<svg width="596" height="208" viewBox="0 0 596 208" fill="none" xmlns="http://www.w3.org/2000/svg">
<path d="M81.7 127.8L0.799988 81.2V160.7L81.7 127.8Z" fill="#1A5AA8"/>
<path d="M0.799988 160.7L81.7 207.2V127.8L0.799988 160.7Z" fill="#24356F"/>
<path d="M81.7 127.8L162.5 81.2V160.7L81.7 127.8Z" fill="#246BB4"/>
<path d="M162.5 160.7L81.7 207.2V127.8L162.5 160.7Z" fill="#1A5AA8"/>
<path d="M81.7 0.600006V26.9L44.3 48.6L22.2 35.2L81.7 0.600006Z" fill="#1A5AA8"/>
<path d="M44.3 48.6V87L21.9 73.4V35.5L22.2 35.2L44.3 48.6Z" fill="#24356F"/>
<path d="M81.7 0.600006V26.9L119 48.6L141.1 35.2L81.7 0.600006Z" fill="#3C8BCA"/>
<path d="M119 48.6V87L141.4 73.4V35.5L141.1 35.2L119 48.6Z" fill="#97B7E0"/>
<path d="M232.6 30.1C224.2 30.1 217 31.9 210.9 35.6C204.8 39.3 200.2 44.4 196.9 50.9C193.6 57.4 192 64.8 192 73.2V76.1C192 84.9 193.7 92.5 197.1 99C200.5 105.4 205.3 110.4 211.5 113.9C217.7 117.4 225 119.2 233.5 119.2C239.6 119.2 245.2 118.4 250.3 116.9C255.3 115.4 259.5 113.5 262.9 111.3V90.6H250L248.2 102.8C246.1 103.7 243.8 104.5 241.3 105C238.8 105.6 236.3 105.9 233.8 105.9C228.8 105.9 224.5 104.7 220.8 102.2C217.2 99.8 214.3 96.3 212.3 91.9C210.3 87.5 209.3 82.2 209.3 76.1V73.1C209.3 67 210.2 61.8 212.1 57.4C214 53 216.7 49.6 220.2 47.1C223.7 44.7 228 43.5 232.9 43.5C235 43.5 237 43.7 238.8 44C240.6 44.4 242.3 44.9 243.8 45.5C245.3 46.2 246.8 47 248.1 47.9L249.9 61.1H262.8V40.2C258.8 36.8 254.2 34.2 249 32.6C243.9 31.1 238.4 30.1 232.6 30.1Z" fill="#24356F"/>
<path d="M321 41.9L330.5 43L314.5 70.6L313.2 73.4H312.9L311.5 70.6L297.1 43L304.2 41.9V31.5H269.7V41.9L278 43.1L303.7 88.4V105.8L294.4 107.7V118.1H330.3V107.7L321 105.8V87.1L346.4 43.1L354.9 41.9V31.5H321V41.9Z" fill="#24356F"/>
<path d="M427.7 77.1C425.4 75.2 422.5 73.9 419 73.1C423 71.5 426.1 69.1 428.3 66C430.4 62.8 431.5 59.3 431.5 55.3C431.5 47.4 428.6 41.5 422.9 37.5C417.2 33.5 409.2 31.5 399 31.5H369.7H360.5V41.9L369.7 43.7V105.9L360.5 107.7V118H403.1C413.1 118 420.9 115.9 426.4 111.6C431.9 107.3 434.6 101.1 434.6 92.8C434.6 89.6 434 86.6 432.9 83.9C431.8 81.2 430.1 79 427.7 77.1ZM387.2 44.9H399.1C404.1 44.9 407.9 45.9 410.4 47.8C412.9 49.7 414.2 52.7 414.2 56.7C414.2 60.4 413 63.1 410.5 65C408 66.9 404.4 67.9 399.8 67.9H387.3L387.2 44.9ZM413.7 101.8C411.3 103.8 407.8 104.8 403.2 104.8H387.2V79.8H404.5C408.9 79.8 412.2 80.9 414.3 83.2C416.4 85.4 417.4 88.7 417.4 92.9C417.4 96.8 416.1 99.8 413.7 101.8Z" fill="#24356F"/>
<path d="M495.1 104.8H467.2V80H496.5V66.6H467.2V44.9H493.7L494.5 54.9H507.8V31.5H440.6V41.9L449.8 43.6V105.8L440.6 107.7V118.1H509.1V94.4H495.9L495.1 104.8Z" fill="#24356F"/>
<path d="M587.8 106L576.8 80.5C576.9 80.5 576.9 80.4 577 80.4C581.5 78.1 585.1 74.9 587.6 70.9C590.1 66.9 591.4 62.4 591.4 57.3C591.4 51.9 590.1 47.3 587.6 43.4C585 39.6 581.4 36.6 576.6 34.5C571.8 32.4 566.1 31.4 559.5 31.4H518.4V41.9L527.6 43.7V105.9L518.4 107.7V118H554.3V107.6L545 105.8V83.8H560.8L574.1 118H595.2V107.6L587.8 106ZM545 70.5V44.9H559.5C564.3 44.9 568 46.1 570.4 48.5C572.9 50.9 574.1 54.1 574.1 58.1C574.1 62.1 572.9 65.2 570.4 67.4C567.9 69.5 564.2 70.6 559.2 70.6H545V70.5Z" fill="#24356F"/>
<path d="M219.3 137.2L224.1 138.1V161.9C224.1 163.9 223.7 165.6 223 166.9C222.3 168.2 221.2 169.2 219.9 169.9C218.5 170.6 216.9 170.9 215 170.9C213.1 170.9 211.5 170.6 210.2 169.9C208.8 169.2 207.8 168.3 207.1 166.9C206.4 165.6 206 163.9 206 161.9V138.2L210.9 137.3V131.8H192.1V137.3L196.9 138.2V161.9C196.9 165.3 197.7 168.2 199.2 170.5C200.7 172.9 202.8 174.7 205.6 175.9C208.3 177.1 211.5 177.8 215.1 177.8C218.7 177.8 221.9 177.2 224.7 175.9C227.4 174.7 229.6 172.9 231.1 170.5C232.6 168.1 233.4 165.2 233.4 161.8V138L238.3 137.1V131.6H219.5V137.1H219.3V137.2Z" fill="#246BB4"/>
<path d="M269.3 131.7V137.2L275.1 138.2V163.2H274.9L255.1 131.7H245.9H241.1V137.2L245.9 138.2V170.8L241.1 171.7V177.2H259.9V171.7L254 170.8V146H254.2L274.4 177.2H283.2V138.2L288.1 137.2V131.7H283.2H269.3Z" fill="#246BB4"/>
<path d="M291.1 137.2L296 138.2V170.8L291.1 171.7V177.2H309.9V171.7L305.1 170.8V138.2L309.9 137.2V131.7H291.1V137.2Z" fill="#246BB4"/>
<path d="M341.3 137.2L346.1 137.8L337.1 164.7L336.5 167.1H336.3L335.6 164.6L326.7 137.8L330.8 137.2V131.7H312.7V137.2L316.8 137.7L331.4 177.2H340.7L354.4 137.7L358.5 137.2V131.7H341.3V137.2Z" fill="#246BB4"/>
<path d="M389.9 170.2H375.3V157.2H390.6V150.2H375.3V138.7H389.2L389.6 144H396.6V131.7H361.3V137.2L366.1 138.2V170.8L361.3 171.7V177.2H397.3V164.7H390.3L389.9 170.2Z" fill="#246BB4"/>
<path d="M432.8 157.3C435.3 156.1 437.1 154.4 438.5 152.3C439.8 150.2 440.5 147.8 440.5 145.2C440.5 142.4 439.8 139.9 438.5 137.9C437.2 135.9 435.2 134.3 432.7 133.2C430.2 132.1 427.2 131.6 423.7 131.6H402.2V137.1L407 138V170.6L402.2 171.5V177H421V171.5L416.1 170.6V159.1H424.4L431.4 177H442.4V171.5L438.5 170.6L432.8 157.3ZM416.1 152.2V138.7H423.7C426.2 138.7 428.2 139.3 429.4 140.6C430.7 141.9 431.3 143.5 431.3 145.6C431.3 147.7 430.6 149.3 429.3 150.5C428 151.6 426 152.2 423.4 152.2H416.1Z" fill="#246BB4"/>
<path d="M477.5 156.2C474.9 153.9 471.1 152.1 466.1 150.7C463.8 149.9 461.9 149.2 460.6 148.5C459.3 147.8 458.3 147.1 457.8 146.3C457.2 145.5 457 144.7 457 143.6C457 142.4 457.3 141.4 458 140.6C458.6 139.8 459.5 139.1 460.6 138.7C461.7 138.3 463 138 464.5 138C466.2 138 467.7 138.2 469.1 138.6C470.5 139 471.5 139.4 472.3 139.9L473.5 146.1H480.3V135.9C478.3 134.3 476 133.1 473.3 132.2C470.6 131.3 467.5 130.9 464 131C460.8 131 458.1 131.6 455.6 132.7C453.2 133.8 451.3 135.3 449.9 137.1C448.5 139 447.9 141.2 447.9 143.6C447.9 146.1 448.5 148.2 449.7 150C450.9 151.8 452.6 153.3 455 154.5C457.4 155.8 460.3 156.9 463.9 158C466 158.6 467.6 159.3 468.8 160C470 160.7 470.9 161.5 471.4 162.3C471.9 163.1 472.2 164.1 472.2 165.2C472.2 166.3 471.9 167.3 471.3 168.2C470.7 169 469.8 169.7 468.7 170.2C467.6 170.7 466.2 170.9 464.5 170.9C462.6 170.9 460.8 170.7 459.1 170.2C457.5 169.7 456.2 169.1 455.2 168.3L454.2 161.8H447.1V172.8C449.8 174.7 452.5 176 455.2 176.7C457.9 177.4 461 177.8 464.3 177.8C467.7 177.8 470.6 177.3 473.1 176.3C475.6 175.3 477.6 173.8 479 171.9C480.4 170 481.1 167.8 481.1 165.2C481.4 161.5 480.1 158.5 477.5 156.2Z" fill="#246BB4"/>
<path d="M485 137.2L489.8 138.2V170.8L485 171.7V177.2H503.8V171.7L498.9 170.8V138.2L503.8 137.2V131.7H485V137.2Z" fill="#246BB4"/>
<path d="M506.9 144.2H513.8L514.3 138.7H522.6V170.8L517.7 171.7V177.2H536.6V171.7L531.7 170.8V138.7H540L540.5 144.2H547.5V131.7H506.9V144.2Z" fill="#246BB4"/>
<path d="M577.4 131.7V137.2L582.4 137.7L574 152.2L573.3 153.7H573.2L572.5 152.2L564.9 137.7L568.6 137.2V131.7H550.5V137.2L554.9 137.8L568.4 161.6V170.8L563.5 171.7V177.2H582.3V171.7L577.4 170.8V160.8L590.7 137.8L595.2 137.2V131.7H577.4Z" fill="#246BB4"/>
</svg>
